<svg xmlns="http://www.w3.org/2000/svg" width="210" height="136" viewBox="0 0 210 136">
  <g id="Group_1" data-name="Group 1" transform="translate(-264 -184)">
    <path id="Path_2" data-name="Path 2" d="M5.833,0H174.167C177.388,0,180,3.134,180,7s-2.612,7-5.833,7H5.833C2.612,14,0,10.866,0,7S2.612,0,5.833,0Z" transform="translate(294 184)"/>
    <path id="Path_1" data-name="Path 1" d="M5.347,0H204.653C207.606,0,210,3.134,210,7s-2.394,7-5.347,7H5.347C2.394,14,0,10.866,0,7S2.394,0,5.347,0Z" transform="translate(264 245)"/>
    <rect id="Rectangle_3" data-name="Rectangle 3" width="160" height="14" rx="7" transform="translate(314 306)"/>
  </g>
</svg>
